# xmcd
#
# Track frame offsets: 
#        150
#        10842
#        20452
#        32709
#        42847
#        53195
#        65511
#        76319
#        85874
#        98016
#        109654
#        123062
#        133498
#        154857
#        169043
#        181558
#        196109
#        206801
#        216097
#        227796
#
# Disc length: 3185 seconds
#
# Revision: 0
# Processed by: cddbd v1.5.2PL0 Copyright (c) Steve Scherf et al.
# Submitted via: ExactAudioCopyFreeDBPlugin 1.0
#
DISCID=020c6f14
DTITLE=Various Artist - Solid Soul 10 - The Real Thing
DYEAR=2001
DGENRE=Soul
TTITLE0=Tina Britt - The Real Thing
TTITLE1=Eddie and Ernie - I Can't Do It
TTITLE2=Baby Washington - Think About The Good Times
TTITLE3=Reggie Garner - Hot Line
TTITLE4=Bird Rollins - Love Man From Carolina
TTITLE5=T.J. Williams and Two Shades Of Soul - Baby I Need You
TTITLE6=Alexander Patton - No More Dreams
TTITLE7=Tommy Mosley - You Lied, I Cried, Love Died
TTITLE8=Frankie Lymon - Little Bitty Pretty One
TTITLE9=Bobby Day - Rockin' Robin
TTITLE10=Jackie Wilson - (Your Love Keeps Liftin' Me)  Higher and Higher
TTITLE11=Frankie Lymon and The Teenagers - Why Do Fools Fall In Love
TTITLE12=The Isley Brothers - This Old Heart Of Mine
TTITLE13=Wilson Pickett - The Best Part Of A Man
TTITLE14=Betty Wright - Clean Up Woman
TTITLE15=Joe Tex - Skinny Legs And All
TTITLE16=Sam and Dave - Hold On I'm Coming (re-recording)
TTITLE17=Bobby Womack - I'm A Midnight Mover
TTITLE18=Chuck Jackson - The Work Song
TTITLE19=Bobby Marchan - I've Got A Thing
EXTD=
EXTT0=
EXTT1=
EXTT2=
EXTT3=
EXTT4=
EXTT5=
EXTT6=
EXTT7=
EXTT8=
EXTT9=
EXTT10=
EXTT11=
EXTT12=
EXTT13=
EXTT14=
EXTT15=
EXTT16=
EXTT17=
EXTT18=
EXTT19=
PLAYORDER=
